<svg xmlns="http://www.w3.org/2000/svg" xmlns:xlink="http://www.w3.org/1999/xlink" width="600" zoomAndPan="magnify" viewBox="0 0 450 149.999998" height="200" preserveAspectRatio="xMidYMid meet" version="1.0"><defs><g/><clipPath id="ca5c5dac7c"><path d="M 94.15625 24.621094 L 355.835938 24.621094 L 355.835938 96.621094 L 94.15625 96.621094 Z M 94.15625 24.621094 " clip-rule="nonzero"/></clipPath><clipPath id="6ed4b336d3"><path d="M 107.226562 31.390625 L 231 31.390625 L 231 89.917969 L 107.226562 89.917969 Z M 107.226562 31.390625 " clip-rule="nonzero"/></clipPath></defs><g clip-path="url(#ca5c5dac7c)"><path stroke-linecap="butt" transform="matrix(0.75, 0, 0, 0.75, 94.15633, 24.620512)" fill="none" stroke-linejoin="miter" d="M -0.00010701 0.000775768 L 348.906163 0.000775768 L 348.906163 96.089323 L -0.00010701 96.089323 Z M -0.00010701 0.000775768 " stroke="#000000" stroke-width="6" stroke-opacity="1" stroke-miterlimit="4"/></g><g clip-path="url(#6ed4b336d3)"><path fill="#ff5757" d="M 107.226562 31.390625 L 230.90625 31.390625 L 230.90625 89.917969 L 107.226562 89.917969 Z M 107.226562 31.390625 " fill-opacity="1" fill-rule="nonzero"/></g><g fill="#ffffff" fill-opacity="1"><g transform="translate(118.113666, 69.655054)"><g><path d="M 2.859375 0 L 2.859375 -19.671875 L 5.34375 -19.671875 L 5.34375 0 Z M 2.859375 0 "/></g></g></g><g fill="#ffffff" fill-opacity="1"><g transform="translate(128.447263, 69.655054)"><g><path d="M 2.859375 0 L 2.859375 -19.671875 L 5.171875 -19.671875 L 12.890625 -8 L 20.5625 -19.671875 L 22.875 -19.671875 L 22.875 0 L 20.390625 0 L 20.390625 -15.03125 L 13.875 -5.21875 L 11.859375 -5.21875 L 5.34375 -15.0625 L 5.34375 0 Z M 2.859375 0 "/></g></g></g><g fill="#ffffff" fill-opacity="1"><g transform="translate(156.301579, 69.655054)"><g><path d="M 0.484375 0 L 8.5625 -19.671875 L 10.875 -19.671875 L 18.96875 0 L 16.34375 0 L 14.5 -4.46875 L 4.921875 -4.46875 L 3.125 0 Z M 5.875 -6.765625 L 13.5625 -6.765625 L 9.71875 -16.203125 Z M 5.875 -6.765625 "/></g></g></g><g fill="#ffffff" fill-opacity="1"><g transform="translate(177.866407, 69.655054)"><g><path d="M 11.625 0.359375 C 10.1875 0.359375 8.859375 0.109375 7.640625 -0.390625 C 6.421875 -0.898438 5.363281 -1.609375 4.46875 -2.515625 C 3.570312 -3.421875 2.875 -4.492188 2.375 -5.734375 C 1.875 -6.984375 1.625 -8.347656 1.625 -9.828125 C 1.625 -11.304688 1.867188 -12.664062 2.359375 -13.90625 C 2.847656 -15.144531 3.539062 -16.222656 4.4375 -17.140625 C 5.332031 -18.054688 6.382812 -18.765625 7.59375 -19.265625 C 8.800781 -19.773438 10.128906 -20.03125 11.578125 -20.03125 C 13.078125 -20.03125 14.460938 -19.757812 15.734375 -19.21875 C 17.003906 -18.675781 18.101562 -17.914062 19.03125 -16.9375 C 19.957031 -15.96875 20.628906 -14.835938 21.046875 -13.546875 L 18.34375 -13.546875 C 17.726562 -14.816406 16.835938 -15.800781 15.671875 -16.5 C 14.515625 -17.207031 13.175781 -17.5625 11.65625 -17.5625 C 10.195312 -17.5625 8.898438 -17.234375 7.765625 -16.578125 C 6.628906 -15.921875 5.742188 -15.007812 5.109375 -13.84375 C 4.472656 -12.6875 4.15625 -11.347656 4.15625 -9.828125 C 4.15625 -8.316406 4.476562 -6.976562 5.125 -5.8125 C 5.769531 -4.65625 6.660156 -3.75 7.796875 -3.09375 C 8.929688 -2.4375 10.226562 -2.109375 11.6875 -2.109375 C 13.019531 -2.109375 14.195312 -2.367188 15.21875 -2.890625 C 16.25 -3.421875 17.085938 -4.148438 17.734375 -5.078125 C 18.378906 -6.003906 18.789062 -7.082031 18.96875 -8.3125 L 10.953125 -8.3125 L 10.953125 -10.671875 L 21.625 -10.671875 C 21.664062 -8.515625 21.269531 -6.609375 20.4375 -4.953125 C 19.601562 -3.296875 18.429688 -1.992188 16.921875 -1.046875 C 15.421875 -0.109375 13.65625 0.359375 11.625 0.359375 Z M 11.625 0.359375 "/></g></g></g><g fill="#ffffff" fill-opacity="1"><g transform="translate(203.165624, 69.655054)"><g><path d="M 2.859375 0 L 2.859375 -19.671875 L 14.8125 -19.671875 L 14.8125 -17.359375 L 5.34375 -17.359375 L 5.34375 -11.15625 L 14.109375 -11.15625 L 14.109375 -8.875 L 5.34375 -8.875 L 5.34375 -2.296875 L 15.109375 -2.296875 L 15.109375 0 Z M 2.859375 0 "/></g></g></g><g fill="#000000" fill-opacity="1"><g transform="translate(244.069897, 72.28005)"><g><path d="M 8.4375 0 L 8.4375 -17.953125 L 0.984375 -17.953125 L 0.984375 -24.5 L 22.921875 -24.5 L 22.921875 -17.953125 L 15.46875 -17.953125 L 15.46875 0 Z M 8.4375 0 "/></g></g></g><g fill="#000000" fill-opacity="1"><g transform="translate(267.969497, 72.28005)"><g><path d="M 2.59375 0 L 2.59375 -24.5 L 19.390625 -24.5 L 19.390625 -18.796875 L 9.59375 -18.796875 L 9.59375 -15.21875 L 18.4375 -15.21875 L 18.4375 -9.5625 L 9.59375 -9.5625 L 9.59375 -5.78125 L 19.78125 -5.78125 L 19.78125 0 Z M 2.59375 0 "/></g></g></g><g fill="#000000" fill-opacity="1"><g transform="translate(289.314672, 72.28005)"><g><path d="M 0.734375 0 L 8.859375 -12.5 L 1.15625 -24.5 L 9.0625 -24.5 L 11.171875 -21.109375 L 13.46875 -17.4375 L 15.75 -21.109375 L 17.890625 -24.5 L 25.765625 -24.5 L 18.09375 -12.5625 L 26.21875 0 L 17.953125 0 L 15.5 -3.984375 L 13.46875 -7.25 L 8.953125 0 Z M 0.734375 0 "/></g></g></g><g fill="#000000" fill-opacity="1"><g transform="translate(316.293579, 72.28005)"><g><path d="M 8.4375 0 L 8.4375 -17.953125 L 0.984375 -17.953125 L 0.984375 -24.5 L 22.921875 -24.5 L 22.921875 -17.953125 L 15.46875 -17.953125 L 15.46875 0 Z M 8.4375 0 "/></g></g></g><g fill="#000000" fill-opacity="1"><g transform="translate(95.475583, 119.890329)"><g><path d="M 1.484375 0 L 1.484375 -14.0625 L 7.421875 -14.0625 C 8.609375 -14.0625 9.640625 -13.847656 10.515625 -13.421875 C 11.390625 -12.992188 12.066406 -12.382812 12.546875 -11.59375 C 13.023438 -10.800781 13.265625 -9.863281 13.265625 -8.78125 C 13.265625 -7.707031 13.023438 -6.769531 12.546875 -5.96875 C 12.066406 -5.175781 11.390625 -4.5625 10.515625 -4.125 C 9.640625 -3.6875 8.609375 -3.46875 7.421875 -3.46875 L 5.546875 -3.46875 L 5.546875 0 Z M 5.5 -6.875 L 7.03125 -6.875 C 7.695312 -6.875 8.21875 -7.039062 8.59375 -7.375 C 8.96875 -7.707031 9.15625 -8.171875 9.15625 -8.765625 C 9.15625 -9.347656 8.96875 -9.804688 8.59375 -10.140625 C 8.21875 -10.484375 7.695312 -10.65625 7.03125 -10.65625 L 5.5 -10.65625 Z M 5.5 -6.875 "/></g></g></g><g fill="#000000" fill-opacity="1"><g transform="translate(109.202256, 119.890329)"><g><path d="M 0.09375 0 L 5.5625 -14.0625 L 9.578125 -14.0625 L 15.046875 0 L 10.734375 0 L 9.96875 -1.984375 L 5.171875 -1.984375 L 4.40625 0 Z M 6.015625 -4.96875 L 9.140625 -4.96875 L 7.578125 -9.328125 Z M 6.015625 -4.96875 "/></g></g></g><g fill="#000000" fill-opacity="1"><g transform="translate(124.355857, 119.890329)"><g><path d="M 1.484375 0 L 1.484375 -14.0625 L 7.890625 -14.0625 C 9.035156 -14.0625 10.019531 -13.859375 10.84375 -13.453125 C 11.664062 -13.046875 12.300781 -12.46875 12.75 -11.71875 C 13.195312 -10.96875 13.421875 -10.066406 13.421875 -9.015625 C 13.421875 -8.046875 13.21875 -7.191406 12.8125 -6.453125 C 12.414062 -5.722656 11.84375 -5.148438 11.09375 -4.734375 L 13.6875 0 L 9.078125 0 L 7.078125 -4 L 5.546875 -4 L 5.546875 0 Z M 5.46875 -7.234375 L 7.359375 -7.234375 C 7.992188 -7.234375 8.484375 -7.382812 8.828125 -7.6875 C 9.171875 -8 9.34375 -8.4375 9.34375 -9 C 9.34375 -9.5625 9.171875 -9.992188 8.828125 -10.296875 C 8.484375 -10.597656 7.992188 -10.75 7.359375 -10.75 L 5.46875 -10.75 Z M 5.46875 -7.234375 "/></g></g></g><g fill="#000000" fill-opacity="1"><g transform="translate(138.826143, 119.890329)"><g><path d="M 6.53125 0.296875 C 4.707031 0.296875 3.28125 -0.132812 2.25 -1 C 1.21875 -1.863281 0.703125 -3.050781 0.703125 -4.5625 L 4.625 -4.5625 C 4.625 -4.019531 4.785156 -3.597656 5.109375 -3.296875 C 5.441406 -3.003906 5.894531 -2.859375 6.46875 -2.859375 C 6.96875 -2.859375 7.359375 -2.953125 7.640625 -3.140625 C 7.921875 -3.335938 8.0625 -3.609375 8.0625 -3.953125 C 8.0625 -4.734375 7.21875 -5.289062 5.53125 -5.625 C 2.375 -6.226562 0.796875 -7.707031 0.796875 -10.0625 C 0.796875 -11.394531 1.273438 -12.441406 2.234375 -13.203125 C 3.191406 -13.972656 4.503906 -14.359375 6.171875 -14.359375 C 7.316406 -14.359375 8.316406 -14.164062 9.171875 -13.78125 C 10.023438 -13.394531 10.679688 -12.84375 11.140625 -12.125 C 11.597656 -11.40625 11.828125 -10.566406 11.828125 -9.609375 L 8.015625 -9.609375 C 8.015625 -10.140625 7.859375 -10.546875 7.546875 -10.828125 C 7.242188 -11.109375 6.8125 -11.25 6.25 -11.25 C 5.78125 -11.25 5.40625 -11.148438 5.125 -10.953125 C 4.84375 -10.765625 4.703125 -10.492188 4.703125 -10.140625 C 4.703125 -9.785156 4.890625 -9.484375 5.265625 -9.234375 C 5.640625 -8.992188 6.273438 -8.773438 7.171875 -8.578125 C 8.890625 -8.203125 10.140625 -7.65625 10.921875 -6.9375 C 11.703125 -6.226562 12.09375 -5.289062 12.09375 -4.125 C 12.09375 -2.738281 11.601562 -1.65625 10.625 -0.875 C 9.644531 -0.09375 8.28125 0.296875 6.53125 0.296875 Z M 6.53125 0.296875 "/></g></g></g><g fill="#000000" fill-opacity="1"><g transform="translate(151.668519, 119.890329)"><g><path d="M 1.484375 0 L 1.484375 -14.0625 L 11.125 -14.0625 L 11.125 -10.796875 L 5.5 -10.796875 L 5.5 -8.734375 L 10.59375 -8.734375 L 10.59375 -5.484375 L 5.5 -5.484375 L 5.5 -3.3125 L 11.359375 -3.3125 L 11.359375 0 Z M 1.484375 0 "/></g></g></g><g fill="#000000" fill-opacity="1"><g transform="translate(163.928059, 119.890329)"><g/></g></g><g fill="#000000" fill-opacity="1"><g transform="translate(168.570607, 119.890329)"><g><path d="M 1.78125 2.734375 L 1.78125 -16.078125 L 5.328125 -16.078125 L 5.328125 2.734375 Z M 1.78125 2.734375 "/></g></g></g><g fill="#000000" fill-opacity="1"><g transform="translate(175.685158, 119.890329)"><g/></g></g><g fill="#000000" fill-opacity="1"><g transform="translate(180.327705, 119.890329)"><g><path d="M 8.0625 0.296875 C 6.601562 0.296875 5.316406 -0.0078125 4.203125 -0.625 C 3.097656 -1.238281 2.234375 -2.097656 1.609375 -3.203125 C 0.992188 -4.304688 0.6875 -5.582031 0.6875 -7.03125 C 0.6875 -8.476562 0.992188 -9.753906 1.609375 -10.859375 C 2.222656 -11.960938 3.082031 -12.820312 4.1875 -13.4375 C 5.289062 -14.050781 6.566406 -14.359375 8.015625 -14.359375 C 9.273438 -14.359375 10.410156 -14.117188 11.421875 -13.640625 C 12.441406 -13.160156 13.296875 -12.484375 13.984375 -11.609375 C 14.679688 -10.742188 15.148438 -9.710938 15.390625 -8.515625 L 11.296875 -8.515625 C 11.078125 -9.148438 10.6875 -9.65625 10.125 -10.03125 C 9.5625 -10.414062 8.910156 -10.609375 8.171875 -10.609375 C 7.515625 -10.609375 6.929688 -10.457031 6.421875 -10.15625 C 5.921875 -9.851562 5.523438 -9.429688 5.234375 -8.890625 C 4.941406 -8.359375 4.796875 -7.738281 4.796875 -7.03125 C 4.796875 -6.332031 4.9375 -5.710938 5.21875 -5.171875 C 5.5 -4.628906 5.890625 -4.207031 6.390625 -3.90625 C 6.898438 -3.601562 7.484375 -3.453125 8.140625 -3.453125 C 8.898438 -3.453125 9.5625 -3.648438 10.125 -4.046875 C 10.6875 -4.441406 11.097656 -4.96875 11.359375 -5.625 L 15.46875 -5.625 C 15.269531 -4.4375 14.828125 -3.394531 14.140625 -2.5 C 13.460938 -1.613281 12.601562 -0.925781 11.5625 -0.4375 C 10.519531 0.0507812 9.351562 0.296875 8.0625 0.296875 Z M 8.0625 0.296875 "/></g></g></g><g fill="#000000" fill-opacity="1"><g transform="translate(196.445986, 119.890329)"><g><path d="M 9.890625 0 L 9.890625 -5.28125 L 5.546875 -5.28125 L 5.546875 0 L 1.484375 0 L 1.484375 -14.0625 L 5.546875 -14.0625 L 5.546875 -9.015625 L 9.890625 -9.015625 L 9.890625 -14.0625 L 13.9375 -14.0625 L 13.9375 0 Z M 9.890625 0 "/></g></g></g><g fill="#000000" fill-opacity="1"><g transform="translate(211.880952, 119.890329)"><g><path d="M 0.09375 0 L 5.5625 -14.0625 L 9.578125 -14.0625 L 15.046875 0 L 10.734375 0 L 9.96875 -1.984375 L 5.171875 -1.984375 L 4.40625 0 Z M 6.015625 -4.96875 L 9.140625 -4.96875 L 7.578125 -9.328125 Z M 6.015625 -4.96875 "/></g></g></g><g fill="#000000" fill-opacity="1"><g transform="translate(227.034554, 119.890329)"><g><path d="M 4.84375 0 L 4.84375 -10.3125 L 0.5625 -10.3125 L 0.5625 -14.0625 L 13.15625 -14.0625 L 13.15625 -10.3125 L 8.875 -10.3125 L 8.875 0 Z M 4.84375 0 "/></g></g></g><g fill="#000000" fill-opacity="1"><g transform="translate(240.761226, 119.890329)"><g/></g></g><g fill="#000000" fill-opacity="1"><g transform="translate(245.403774, 119.890329)"><g><path d="M 1.78125 2.734375 L 1.78125 -16.078125 L 5.328125 -16.078125 L 5.328125 2.734375 Z M 1.78125 2.734375 "/></g></g></g><g fill="#000000" fill-opacity="1"><g transform="translate(252.518325, 119.890329)"><g/></g></g><g fill="#000000" fill-opacity="1"><g transform="translate(257.160872, 119.890329)"><g><path d="M 0.09375 0 L 5.5625 -14.0625 L 9.578125 -14.0625 L 15.046875 0 L 10.734375 0 L 9.96875 -1.984375 L 5.171875 -1.984375 L 4.40625 0 Z M 6.015625 -4.96875 L 9.140625 -4.96875 L 7.578125 -9.328125 Z M 6.015625 -4.96875 "/></g></g></g><g fill="#000000" fill-opacity="1"><g transform="translate(272.314473, 119.890329)"><g><path d="M 1.484375 0 L 1.484375 -14.0625 L 4.796875 -14.0625 L 10.140625 -6.9375 L 10.140625 -14.0625 L 14.140625 -14.0625 L 14.140625 0 L 10.84375 0 L 5.5 -7.171875 L 5.5 0 Z M 1.484375 0 "/></g></g></g><g fill="#000000" fill-opacity="1"><g transform="translate(287.970505, 119.890329)"><g><path d="M 0.09375 0 L 5.5625 -14.0625 L 9.578125 -14.0625 L 15.046875 0 L 10.734375 0 L 9.96875 -1.984375 L 5.171875 -1.984375 L 4.40625 0 Z M 6.015625 -4.96875 L 9.140625 -4.96875 L 7.578125 -9.328125 Z M 6.015625 -4.96875 "/></g></g></g><g fill="#000000" fill-opacity="1"><g transform="translate(303.124106, 119.890329)"><g><path d="M 1.484375 0 L 1.484375 -14.0625 L 5.546875 -14.0625 L 5.546875 -3.75 L 11.296875 -3.75 L 11.296875 0 Z M 1.484375 0 "/></g></g></g><g fill="#000000" fill-opacity="1"><g transform="translate(314.921408, 119.890329)"><g><path d="M 5.21875 0 L 5.21875 -4.875 L 0.09375 -14.0625 L 4.65625 -14.0625 L 6.15625 -11.15625 L 7.234375 -9.015625 L 9.78125 -14.0625 L 14.390625 -14.0625 L 9.265625 -4.90625 L 9.265625 0 Z M 5.21875 0 "/></g></g></g><g fill="#000000" fill-opacity="1"><g transform="translate(329.411802, 119.890329)"><g><path d="M 6.53125 0.296875 C 4.707031 0.296875 3.28125 -0.132812 2.25 -1 C 1.21875 -1.863281 0.703125 -3.050781 0.703125 -4.5625 L 4.625 -4.5625 C 4.625 -4.019531 4.785156 -3.597656 5.109375 -3.296875 C 5.441406 -3.003906 5.894531 -2.859375 6.46875 -2.859375 C 6.96875 -2.859375 7.359375 -2.953125 7.640625 -3.140625 C 7.921875 -3.335938 8.0625 -3.609375 8.0625 -3.953125 C 8.0625 -4.734375 7.21875 -5.289062 5.53125 -5.625 C 2.375 -6.226562 0.796875 -7.707031 0.796875 -10.0625 C 0.796875 -11.394531 1.273438 -12.441406 2.234375 -13.203125 C 3.191406 -13.972656 4.503906 -14.359375 6.171875 -14.359375 C 7.316406 -14.359375 8.316406 -14.164062 9.171875 -13.78125 C 10.023438 -13.394531 10.679688 -12.84375 11.140625 -12.125 C 11.597656 -11.40625 11.828125 -10.566406 11.828125 -9.609375 L 8.015625 -9.609375 C 8.015625 -10.140625 7.859375 -10.546875 7.546875 -10.828125 C 7.242188 -11.109375 6.8125 -11.25 6.25 -11.25 C 5.78125 -11.25 5.40625 -11.148438 5.125 -10.953125 C 4.84375 -10.765625 4.703125 -10.492188 4.703125 -10.140625 C 4.703125 -9.785156 4.890625 -9.484375 5.265625 -9.234375 C 5.640625 -8.992188 6.273438 -8.773438 7.171875 -8.578125 C 8.890625 -8.203125 10.140625 -7.65625 10.921875 -6.9375 C 11.703125 -6.226562 12.09375 -5.289062 12.09375 -4.125 C 12.09375 -2.738281 11.601562 -1.65625 10.625 -0.875 C 9.644531 -0.09375 8.28125 0.296875 6.53125 0.296875 Z M 6.53125 0.296875 "/></g></g></g><g fill="#000000" fill-opacity="1"><g transform="translate(342.254178, 119.890329)"><g><path d="M 1.484375 0 L 1.484375 -14.0625 L 11.125 -14.0625 L 11.125 -10.796875 L 5.5 -10.796875 L 5.5 -8.734375 L 10.59375 -8.734375 L 10.59375 -5.484375 L 5.5 -5.484375 L 5.5 -3.3125 L 11.359375 -3.3125 L 11.359375 0 Z M 1.484375 0 "/></g></g></g></svg>